<mxfile host="app.diagrams.net" agent="Mozilla/5.0 (X11; Linux x86_64; rv:142.0) Gecko/20100101 Firefox/142.0" version="28.1.1">
  <diagram name="Página-1" id="yNtrUq_g8D0pvzZwIxcy">
    <mxGraphModel grid="1" page="1" gridSize="10" guides="1" tooltips="1" connect="1" arrows="1" fold="1" pageScale="1" pageWidth="827" pageHeight="1169" math="0" shadow="0">
      <root>
        <mxCell id="0" />
        <mxCell id="1" parent="0" />
        <mxCell id="hfvlFV7jpzGiQFUbrp5R-7" value="" style="swimlane;startSize=0;" vertex="1" parent="1">
          <mxGeometry x="460" y="-190" width="660" height="940" as="geometry" />
        </mxCell>
        <mxCell id="rLZH8Nn4CCLPOPYhZAGx-91" value="Sistema SportHub Temuco" style="text;html=1;align=center;verticalAlign=middle;whiteSpace=wrap;rounded=0;fontSize=17;fontStyle=1" vertex="1" parent="hfvlFV7jpzGiQFUbrp5R-7">
          <mxGeometry x="120" y="10" width="210" height="30" as="geometry" />
        </mxCell>
        <mxCell id="hfvlFV7jpzGiQFUbrp5R-23" value="&lt;b&gt;Muestra las localizaciones de las canchas en un mapa&lt;/b&gt;" style="text;html=1;align=center;verticalAlign=middle;whiteSpace=wrap;rounded=0;" vertex="1" parent="hfvlFV7jpzGiQFUbrp5R-7">
          <mxGeometry x="490" y="130" width="170" height="30" as="geometry" />
        </mxCell>
        <object placeholders="1" c4Name="Aplicacion Web" c4Type="Tecnologias" c4Technology="Next.js (React + Typescript), TailwindCSS, shadcn/ui, React Query, React Hook Form + Zod, Google Maps API." c4Description="El frontend que corre en el navegador del usuario. Provee toda la UI/UX de la plataforma." label="&lt;font style=&quot;font-size: 16px&quot;&gt;&lt;b&gt;%c4Name%&lt;/b&gt;&lt;/font&gt;&lt;div&gt;[%c4Type%:&amp;nbsp;%c4Technology%]&lt;/div&gt;&lt;br&gt;&lt;div&gt;&lt;font style=&quot;font-size: 11px&quot;&gt;&lt;font color=&quot;#E6E6E6&quot;&gt;%c4Description%&lt;/font&gt;&lt;/div&gt;" id="J8GszFiHfWirKlPTaXoZ-1">
          <mxCell style="shape=mxgraph.c4.webBrowserContainer2;whiteSpace=wrap;html=1;boundedLbl=1;rounded=0;labelBackgroundColor=none;strokeColor=#118ACD;fillColor=#23A2D9;strokeColor=#118ACD;strokeColor2=#0E7DAD;fontSize=12;fontColor=#ffffff;align=center;metaEdit=1;points=[[0.5,0,0],[1,0.25,0],[1,0.5,0],[1,0.75,0],[0.5,1,0],[0,0.75,0],[0,0.5,0],[0,0.25,0]];resizable=0;" vertex="1" parent="hfvlFV7jpzGiQFUbrp5R-7">
            <mxGeometry x="230" y="80" width="240" height="160" as="geometry" />
          </mxCell>
        </object>
        <object placeholders="1" c4Name="API" c4Type="Tecnologias" c4Technology="NestJS + TypeScript + FastAPI" c4Description="Gestiona toda la logica del negocio, autenticacion y sirve los datos a la aplicacion web." label="&lt;font style=&quot;font-size: 16px&quot;&gt;&lt;b&gt;%c4Name%&lt;/b&gt;&lt;/font&gt;&lt;div&gt;[%c4Type%:&amp;nbsp;%c4Technology%]&lt;/div&gt;&lt;br&gt;&lt;div&gt;&lt;font style=&quot;font-size: 11px&quot;&gt;&lt;font color=&quot;#E6E6E6&quot;&gt;%c4Description%&lt;/font&gt;&lt;/div&gt;" id="J8GszFiHfWirKlPTaXoZ-2">
          <mxCell style="shape=mxgraph.c4.webBrowserContainer2;whiteSpace=wrap;html=1;boundedLbl=1;rounded=0;labelBackgroundColor=none;strokeColor=#118ACD;fillColor=#23A2D9;strokeColor=#118ACD;strokeColor2=#0E7DAD;fontSize=12;fontColor=#ffffff;align=center;metaEdit=1;points=[[0.5,0,0],[1,0.25,0],[1,0.5,0],[1,0.75,0],[0.5,1,0],[0,0.75,0],[0,0.5,0],[0,0.25,0]];resizable=0;" vertex="1" parent="hfvlFV7jpzGiQFUbrp5R-7">
            <mxGeometry x="80" y="390" width="240" height="160" as="geometry" />
          </mxCell>
        </object>
        <mxCell id="J8GszFiHfWirKlPTaXoZ-3" style="edgeStyle=orthogonalEdgeStyle;rounded=0;orthogonalLoop=1;jettySize=auto;html=1;entryX=0.5;entryY=0;entryDx=0;entryDy=0;entryPerimeter=0;" edge="1" parent="hfvlFV7jpzGiQFUbrp5R-7" source="J8GszFiHfWirKlPTaXoZ-1" target="J8GszFiHfWirKlPTaXoZ-2">
          <mxGeometry relative="1" as="geometry" />
        </mxCell>
        <mxCell id="J8GszFiHfWirKlPTaXoZ-11" value="&lt;b&gt;Realiza consultas a la API&lt;/b&gt;" style="text;html=1;align=center;verticalAlign=middle;whiteSpace=wrap;rounded=0;" vertex="1" parent="hfvlFV7jpzGiQFUbrp5R-7">
          <mxGeometry x="220" y="320" width="120" height="30" as="geometry" />
        </mxCell>
        <object placeholders="1" c4Name="Base de Datos" c4Type="Tecnologias" c4Technology="PostgreSQL + PostGIS" c4Description="Almacena informacion sobre los usuarios, administradores, canchas, reservas, etc." label="&lt;font style=&quot;font-size: 16px&quot;&gt;&lt;b&gt;%c4Name%&lt;/b&gt;&lt;/font&gt;&lt;div&gt;[%c4Type%:&amp;nbsp;%c4Technology%]&lt;/div&gt;&lt;br&gt;&lt;div&gt;&lt;font style=&quot;font-size: 11px&quot;&gt;&lt;font color=&quot;#E6E6E6&quot;&gt;%c4Description%&lt;/font&gt;&lt;/div&gt;" id="J8GszFiHfWirKlPTaXoZ-12">
          <mxCell style="shape=cylinder3;size=15;whiteSpace=wrap;html=1;boundedLbl=1;rounded=0;labelBackgroundColor=none;fillColor=#23A2D9;fontSize=12;fontColor=#ffffff;align=center;strokeColor=#0E7DAD;metaEdit=1;points=[[0.5,0,0],[1,0.25,0],[1,0.5,0],[1,0.75,0],[0.5,1,0],[0,0.75,0],[0,0.5,0],[0,0.25,0]];resizable=0;" vertex="1" parent="hfvlFV7jpzGiQFUbrp5R-7">
            <mxGeometry x="230" y="730" width="240" height="120" as="geometry" />
          </mxCell>
        </object>
        <mxCell id="J8GszFiHfWirKlPTaXoZ-13" style="edgeStyle=orthogonalEdgeStyle;rounded=0;orthogonalLoop=1;jettySize=auto;html=1;exitX=0.5;exitY=1;exitDx=0;exitDy=0;exitPerimeter=0;entryX=0.5;entryY=0;entryDx=0;entryDy=0;entryPerimeter=0;" edge="1" parent="hfvlFV7jpzGiQFUbrp5R-7" source="J8GszFiHfWirKlPTaXoZ-2" target="J8GszFiHfWirKlPTaXoZ-12">
          <mxGeometry relative="1" as="geometry" />
        </mxCell>
        <mxCell id="J8GszFiHfWirKlPTaXoZ-14" value="&lt;div&gt;&lt;b&gt;Lee y escribe datos&lt;/b&gt;&lt;/div&gt;&lt;div&gt;&lt;b&gt;(PRISMA ORM)&lt;/b&gt;&lt;/div&gt;" style="text;html=1;align=center;verticalAlign=middle;whiteSpace=wrap;rounded=0;" vertex="1" parent="hfvlFV7jpzGiQFUbrp5R-7">
          <mxGeometry x="220" y="610" width="120" height="30" as="geometry" />
        </mxCell>
        <object placeholders="1" c4Name="Jugadores/Dueños de la Cancha" c4Type="Clientes" c4Description="Usuario que interactúa con la plataforma a través de un navegador." label="&lt;font style=&quot;font-size: 16px&quot;&gt;&lt;b&gt;%c4Name%&lt;/b&gt;&lt;/font&gt;&lt;div&gt;[%c4Type%]&lt;/div&gt;&lt;br&gt;&lt;div&gt;&lt;font style=&quot;font-size: 11px&quot;&gt;&lt;font color=&quot;#cccccc&quot;&gt;%c4Description%&lt;/font&gt;&lt;/div&gt;" id="hfvlFV7jpzGiQFUbrp5R-14">
          <mxCell style="html=1;fontSize=11;dashed=0;whiteSpace=wrap;fillColor=#083F75;strokeColor=#06315C;fontColor=#ffffff;shape=mxgraph.c4.person2;align=center;metaEdit=1;points=[[0.5,0,0],[1,0.5,0],[1,0.75,0],[0.75,1,0],[0.5,1,0],[0.25,1,0],[0,0.75,0],[0,0.5,0]];resizable=0;" vertex="1" parent="1">
            <mxGeometry x="710" y="-510" width="200" height="180" as="geometry" />
          </mxCell>
        </object>
        <object placeholders="1" c4Name="Servicio de Mapas" c4Type="Google Maps API" c4Description="Provee los mapas interactivos y la información de geolocalización de las canchas" label="&lt;font style=&quot;font-size: 16px&quot;&gt;&lt;b&gt;%c4Name%&lt;/b&gt;&lt;/font&gt;&lt;div&gt;[%c4Type%]&lt;/div&gt;&lt;br&gt;&lt;div&gt;&lt;font style=&quot;font-size: 11px&quot;&gt;&lt;font color=&quot;#cccccc&quot;&gt;%c4Description%&lt;/font&gt;&lt;/div&gt;" id="hfvlFV7jpzGiQFUbrp5R-18">
          <mxCell style="rounded=1;whiteSpace=wrap;html=1;labelBackgroundColor=none;fillColor=#8C8496;fontColor=#ffffff;align=center;arcSize=10;strokeColor=#736782;metaEdit=1;resizable=0;points=[[0.25,0,0],[0.5,0,0],[0.75,0,0],[1,0.25,0],[1,0.5,0],[1,0.75,0],[0.75,1,0],[0.5,1,0],[0.25,1,0],[0,0.75,0],[0,0.5,0],[0,0.25,0]];" vertex="1" parent="1">
            <mxGeometry x="1180" y="-90" width="240" height="120" as="geometry" />
          </mxCell>
        </object>
        <object placeholders="1" c4Name="Servicio de Pagos" c4Type="Flow / WebPay" c4Description="Sistema externo para procesar los pagos de las reservas de forma segura." label="&lt;font style=&quot;font-size: 16px&quot;&gt;&lt;b&gt;%c4Name%&lt;/b&gt;&lt;/font&gt;&lt;div&gt;[%c4Type%]&lt;/div&gt;&lt;br&gt;&lt;div&gt;&lt;font style=&quot;font-size: 11px&quot;&gt;&lt;font color=&quot;#cccccc&quot;&gt;%c4Description%&lt;/font&gt;&lt;/div&gt;" id="hfvlFV7jpzGiQFUbrp5R-19">
          <mxCell style="rounded=1;whiteSpace=wrap;html=1;labelBackgroundColor=none;fillColor=#8C8496;fontColor=#ffffff;align=center;arcSize=10;strokeColor=#736782;metaEdit=1;resizable=0;points=[[0.25,0,0],[0.5,0,0],[0.75,0,0],[1,0.25,0],[1,0.5,0],[1,0.75,0],[0.75,1,0],[0.5,1,0],[0.25,1,0],[0,0.75,0],[0,0.5,0],[0,0.25,0]];" vertex="1" parent="1">
            <mxGeometry x="140" y="-50" width="240" height="120" as="geometry" />
          </mxCell>
        </object>
        <mxCell id="hfvlFV7jpzGiQFUbrp5R-20" style="edgeStyle=orthogonalEdgeStyle;rounded=0;orthogonalLoop=1;jettySize=auto;html=1;entryX=0.5;entryY=0;entryDx=0;entryDy=0;entryPerimeter=0;exitX=0.5;exitY=1;exitDx=0;exitDy=0;exitPerimeter=0;" edge="1" parent="1" source="hfvlFV7jpzGiQFUbrp5R-14" target="J8GszFiHfWirKlPTaXoZ-1">
          <mxGeometry relative="1" as="geometry">
            <mxPoint x="780" y="-290" as="sourcePoint" />
            <Array as="points">
              <mxPoint x="810" y="-110" />
            </Array>
            <mxPoint x="810" y="-120" as="targetPoint" />
          </mxGeometry>
        </mxCell>
        <mxCell id="hfvlFV7jpzGiQFUbrp5R-21" style="edgeStyle=orthogonalEdgeStyle;rounded=0;orthogonalLoop=1;jettySize=auto;html=1;exitX=1;exitY=0.5;exitDx=0;exitDy=0;entryX=0;entryY=0.5;entryDx=0;entryDy=0;entryPerimeter=0;exitPerimeter=0;" edge="1" parent="1" source="J8GszFiHfWirKlPTaXoZ-1" target="hfvlFV7jpzGiQFUbrp5R-18">
          <mxGeometry relative="1" as="geometry">
            <mxPoint x="930" y="-60" as="sourcePoint" />
            <mxPoint x="1260" y="120" as="targetPoint" />
            <Array as="points">
              <mxPoint x="1160" y="-30" />
              <mxPoint x="1160" y="-30" />
            </Array>
          </mxGeometry>
        </mxCell>
        <mxCell id="hfvlFV7jpzGiQFUbrp5R-22" value="&lt;b&gt;Utiliza (HTTPS)&lt;/b&gt;" style="text;html=1;align=center;verticalAlign=middle;whiteSpace=wrap;rounded=0;" vertex="1" parent="1">
          <mxGeometry x="820" y="-300" width="60" height="30" as="geometry" />
        </mxCell>
        <mxCell id="J8GszFiHfWirKlPTaXoZ-7" value="" style="endArrow=classic;html=1;rounded=0;entryX=1;entryY=0.5;entryDx=0;entryDy=0;entryPerimeter=0;exitX=0;exitY=0.25;exitDx=0;exitDy=0;exitPerimeter=0;" edge="1" parent="1" source="J8GszFiHfWirKlPTaXoZ-2" target="hfvlFV7jpzGiQFUbrp5R-19">
          <mxGeometry relative="1" as="geometry">
            <mxPoint x="670" y="130" as="sourcePoint" />
            <mxPoint x="770" y="130" as="targetPoint" />
            <Array as="points">
              <mxPoint x="410" y="240" />
              <mxPoint x="410" y="10" />
            </Array>
          </mxGeometry>
        </mxCell>
        <mxCell id="J8GszFiHfWirKlPTaXoZ-8" value="&lt;div&gt;&lt;b&gt;Inicia transacciones&amp;nbsp;&lt;/b&gt;&lt;/div&gt;&lt;div&gt;&lt;b&gt;de pago&lt;/b&gt;&lt;/div&gt;&lt;div&gt;&lt;b&gt;(HTTPS)&lt;/b&gt;&lt;/div&gt;" style="edgeLabel;resizable=0;html=1;;align=center;verticalAlign=middle;" connectable="0" vertex="1" parent="J8GszFiHfWirKlPTaXoZ-7">
          <mxGeometry relative="1" as="geometry">
            <mxPoint x="-10" as="offset" />
          </mxGeometry>
        </mxCell>
        <mxCell id="J8GszFiHfWirKlPTaXoZ-9" value="" style="endArrow=classic;html=1;rounded=0;exitX=0.25;exitY=1;exitDx=0;exitDy=0;exitPerimeter=0;entryX=0;entryY=0.75;entryDx=0;entryDy=0;entryPerimeter=0;" edge="1" parent="1" source="hfvlFV7jpzGiQFUbrp5R-19" target="J8GszFiHfWirKlPTaXoZ-2">
          <mxGeometry relative="1" as="geometry">
            <mxPoint x="670" y="130" as="sourcePoint" />
            <mxPoint x="770" y="130" as="targetPoint" />
            <Array as="points">
              <mxPoint x="200" y="320" />
            </Array>
          </mxGeometry>
        </mxCell>
        <mxCell id="J8GszFiHfWirKlPTaXoZ-10" value="&lt;div&gt;&lt;b&gt;Notifica el resultado del pago&lt;/b&gt;&lt;/div&gt;&lt;div&gt;&lt;b&gt;(Webhook)&lt;/b&gt;&lt;/div&gt;" style="edgeLabel;resizable=0;html=1;;align=center;verticalAlign=middle;" connectable="0" vertex="1" parent="J8GszFiHfWirKlPTaXoZ-9">
          <mxGeometry relative="1" as="geometry" />
        </mxCell>
      </root>
    </mxGraphModel>
  </diagram>
</mxfile>
